# xmcd CD database file
#
# Track frame offsets:
#	150
#	26115
#	46477
#	64652
#	77997
#	90630
#	100232
#	114437
#	126075
#	146040
#	164702
#	184557
#	198547
#	227770
#	243682
#
# Disc length: 3616 seconds
#
# Revision: 3
# Processed by: cddbd v1.5.2PL0 Copyright (c) Steve Scherf et al.
# Submitted via: CDex 1.51
#
DISCID=d70e1e0f
DTITLE=Various Artist - Blues Story #12 - Le West Coast Blues
DYEAR=1998
DGENRE=Blues
TTITLE0=Robert Cray - Nothing Against You
TTITLE1=Robben Ford - He Don't Play Nothing But The Blues
TTITLE2=Pops Stapples and Ry Cooder - I Shall Not Be Moved
TTITLE3=Ray Charles - You Are My Sunshine
TTITLE4=T. Bone Walker - Stormy Monday Blues
TTITLE5=Pee Wee Crayton - Baby You Don't Cry
TTITLE6=Lowell Fulson - Reconsider Baby
TTITLE7=Johnny Otis - Willie and The Hand Jive
TTITLE8=The Bone Shakers - Long Way Down
TTITLE9=Tommy Castro - Suitcase Full Of Blues
TTITLE10=Coco Montoya - To Much Of A Good Thing
TTITLE11=Elvin Bishop - Don't You Lie To Me
TTITLE12=Charles Brown - These Blues
TTITLE13=Roy Rogers - Terraplane Blues
TTITLE14=Joe Louis Walker - Mile Hi-Club
EXTD=YEAR: 1998
EXTT0=
EXTT1=
EXTT2=
EXTT3=
EXTT4=
EXTT5=
EXTT6=
EXTT7=
EXTT8=
EXTT9=
EXTT10=
EXTT11=
EXTT12=
EXTT13=
EXTT14=
PLAYORDER=
